<svg width="18" height="18" viewBox="0 0 18 18" fill="none" xmlns="http://www.w3.org/2000/svg">
<g clip-path="url(#clip0_330_3874)">
<path fill-rule="evenodd" clip-rule="evenodd" d="M17.0303 0.96967C17.3232 1.26256 17.3232 1.73744 17.0303 2.03033L8.78033 10.2803C8.48744 10.5732 8.01256 10.5732 7.71967 10.2803C7.42678 9.98744 7.42678 9.51256 7.71967 9.21967L15.9697 0.96967C16.2626 0.676777 16.7374 0.676777 17.0303 0.96967Z" fill="black"/>
<path fill-rule="evenodd" clip-rule="evenodd" d="M17.0303 0.96966C17.2341 1.17339 17.3031 1.47581 17.2079 1.74775L11.9579 16.7478C11.8563 17.038 11.5878 17.2368 11.2806 17.2494C10.9733 17.2619 10.6895 17.0856 10.5646 16.8046L7.6818 10.3182L1.1954 7.43535C0.914389 7.31046 0.738092 7.02668 0.750627 6.71942C0.763163 6.41216 0.961991 6.14368 1.25224 6.0421L16.2522 0.792097C16.5242 0.696918 16.8266 0.765932 17.0303 0.96966ZM3.53331 6.83294L8.55461 9.06463C8.72428 9.14004 8.85995 9.27571 8.93536 9.44539L11.167 14.4667L15.2775 2.72247L3.53331 6.83294Z" fill="black"/>
</g>
<defs>
<clipPath id="clip0_330_3874">
<rect width="18" height="18" fill="white"/>
</clipPath>
</defs>
</svg>
